<?xml version="1.0" encoding="UTF-8"?>
<svg id="Capa_1" data-name="Capa 1" xmlns="http://www.w3.org/2000/svg" xmlns:xlink="http://www.w3.org/1999/xlink" viewBox="0 0 473.76 90.93">
  <defs>
    <style>
      .cls-1, .cls-2 {
        fill: none;
      }

      .cls-3 {
        fill: #c4c4c4;
      }

      .cls-4 {
        fill: #fff;
      }

      .cls-2 {
        stroke: #fff;
        stroke-linecap: round;
        stroke-miterlimit: 10;
        stroke-width: .5px;
      }

      .cls-5 {
        clip-path: url(#clippath);
      }
    </style>
    <clipPath id="clippath">
      <rect class="cls-1" y=".25" width="323.52" height="90.43"/>
    </clipPath>
  </defs>
  <g>
    <path class="cls-3" d="M461.42,55.32c-1.19,9.32-6.9,14.75-15.5,14.75-9.1,0-14.98-6.13-15.58-16.56-.35-4.6-.25-11.67,0-16.37.59-10.33,6.48-16.51,15.58-16.51s15.03,6.18,15.67,16.51c.02.37.04.76.05,1.16h11.49c-.03-.83-.07-1.64-.12-2.4-1.04-15.48-11.67-26.21-27.1-26.21s-25.96,10.53-27.05,26.21c-.4,5.34-.4,13.5,0,18.99,1.04,15.62,11.52,26.26,27.05,26.26s25.85-10.48,27.06-25.82h-11.56Z"/>
    <g>
      <path class="cls-4" d="M441.52,45.18v5.22c0,.28-.07.46-.32.65-.53.38-1.97,1.07-3.97,1.07-2.56,0-3.86-1.34-3.86-3.27,0-1.75,1.26-3.18,3.86-3.18.95,0,1.72.13,2.74.41v-.8c0-1.55-.74-2.26-2.42-2.26-.74,0-1.58.18-2.28.51-.19.08-.32.1-.44.1-.41,0-.74-.34-.74-.73,0-.25.12-.55.51-.73.61-.3,1.75-.64,2.95-.64,2.58,0,3.97,1.09,3.97,3.66ZM434.9,48.84c0,1.17.83,1.86,2.49,1.86.97,0,2.03-.37,2.57-.77v-2.49c-1-.27-1.71-.43-2.58-.43-1.7,0-2.48.82-2.48,1.84Z"/>
      <path class="cls-4" d="M452.9,45.56v5.65c0,.45-.31.81-.79.81-.43,0-.79-.36-.79-.81v-5.55c0-1.78-1.17-2.57-2.61-2.57-1.16,0-2.18.36-2.69.68v7.44c0,.45-.34.81-.8.81-.43,0-.79-.36-.79-.81v-7.94c0-.36.1-.53.33-.69.57-.41,1.97-1.06,4-1.06,2.74,0,4.15,1.48,4.15,4.04ZM449.72,39.02c.52,0,.65-.53,1.15-.53.38,0,.65.28.65.64,0,.25-.14.44-.28.57-.45.4-.98.67-1.53.67-.84,0-1.54-.71-2.12-.71-.53,0-.67.52-1.16.52-.38,0-.64-.28-.64-.63,0-.25.13-.41.28-.56.45-.4.98-.68,1.51-.68.91,0,1.52.71,2.14.71Z"/>
      <path class="cls-4" d="M455.48,48.14c-.08-.83-.08-1.83,0-2.65.22-2.31,1.95-3.97,4.36-3.97s4.16,1.66,4.37,3.97c.08.82.08,1.82,0,2.65-.21,2.28-1.95,3.97-4.37,3.97s-4.15-1.69-4.36-3.97ZM462.64,48.04c.08-.85.07-1.69,0-2.44-.14-1.51-1.19-2.52-2.8-2.52s-2.65,1.02-2.79,2.52c-.07.75-.08,1.59,0,2.44.14,1.52,1.18,2.52,2.79,2.52s2.66-1.01,2.8-2.52Z"/>
      <path class="cls-4" d="M472.94,42.34c.21.17.3.37.3.61,0,.41-.34.74-.75.74-.19,0-.32-.05-.55-.19-.51-.3-1.19-.49-1.84-.49-1.36,0-2.06.57-2.06,1.48,0,.62.36,1.06,1.53,1.35l1.46.33c1.87.49,2.74,1.38,2.74,2.82,0,1.91-1.51,3.12-3.66,3.12-1.55,0-2.76-.47-3.57-1.12-.25-.2-.32-.43-.32-.63,0-.41.33-.74.73-.74.2,0,.32.04.55.2.58.43,1.39.8,2.62.8,1.36,0,2.09-.69,2.09-1.58,0-.67-.43-1.11-1.54-1.39l-1.54-.36c-1.63-.4-2.63-1.3-2.63-2.76,0-1.87,1.51-3.01,3.66-3.01,1.13,0,2.19.36,2.79.82Z"/>
    </g>
    <path class="cls-4" d="M428.96,28.43c0,7.71-3.76,12.71-9.74,15.53,7.12,2.87,11.42,8.16,11.42,16.96,0,11.77-9.15,20.32-27.1,20.32s-26.9-8.55-26.9-20.27c0-8.85,4.55-14.39,11.47-17.01-5.59-2.27-9.99-6.97-9.99-15.48,0-11.77,9.59-18.79,25.37-18.79s25.46,7.02,25.46,18.74ZM388.02,59.93c0,6.08,4.75,10.68,15.58,10.68s15.82-4.85,15.82-10.63c0-6.48-5.74-10.73-15.82-10.73s-15.58,4.4-15.58,10.68ZM389.45,29.47c0,6.18,5.39,10.04,13.99,10.04s14.24-4.05,14.24-10.04c0-5.49-4.3-9.49-14.09-9.49s-14.14,4.05-14.14,9.49Z"/>
  </g>
  <g class="cls-5">
    <g>
      <path class="cls-4" d="M120.53,54.75v-6.93h19.54c1,0,1.98-.45,2.27-1.08l1.9-4.07h-21.2c-1.38,0-2.51.85-2.51,1.89v-8.57h25.06c1,0,1.98-.46,2.27-1.08l2.13-4.56h-31.58c-3.41,0-5.53,1.77-5.53,4.14v25.94h32.82c1,0,1.98-.46,2.27-1.08l2.09-4.58h-29.53Z"/>
      <path class="cls-4" d="M319.55,33.07c-2.63-1.82-5.87-2.74-9.74-2.74h-18.32c-3.19,0-5.09,1.6-5.09,3.76v26.33h7.67v-9.98h15.24c4.19,0,7.61-.89,10.24-2.66,2.63-1.81,3.97-4.27,3.97-7.4s-1.34-5.49-3.97-7.31ZM309.15,44.87h-12.56c-1.38,0-2.51.85-2.51,1.89v-10.77h15.23c4.37,0,6.55,1.48,6.55,4.44s-2.24,4.44-6.72,4.44Z"/>
      <path class="cls-4" d="M255.19,34.01c-1.29-2.74-3.81-4.09-7.45-4.09-3.35,0-6.1,1.39-7.38,4.09l-12.59,26.41h8.14l3.97-8.78h15.64l4.01,8.78h8.13l-12.47-26.41ZM241.32,48.34l5.47-11.97c.17-.38.45-.55.95-.55.45,0,.72.17.9.55l4.53,10.1h-8.59c-1.35.05-2.8.86-3.27,1.87Z"/>
      <path class="cls-4" d="M206.93,30.33h-6.31v15.28c0,1.7.05,3.99.17,6.86h-.13l-15.77-20.01c-1.36-1.69-3.25-2.56-5.79-2.56-3.84,0-6.44,2.04-6.44,4.95v25.56h8.04v-15.4l-.12-7.29h.12l16.19,20.44c1.35,1.78,3.37,2.65,5.9,2.65,3.49,0,5.86-2,5.86-4.56v-23.97h0c0-1.02-.72-1.95-1.72-1.95Z"/>
    </g>
    <path class="cls-4" d="M56.13,20.37c0-.11.08-.25.17-.3l.96-.55c.1-.05.25-.05.35,0l.96.55c.1.05.18.19.18.3v1.11c0,.11-.08.25-.18.3l-.96.55c-.1.05-.25.05-.35,0l-.96-.55c-.1-.05-.17-.19-.17-.3v-1.11ZM52.17,19.83c0,.11.08.25.17.3l.96.55c.1.06.25.06.35,0l.96-.55c.1-.05.17-.19.17-.3v-1.11c0-.11-.08-.25-.17-.3l-.96-.55c-.1-.05-.25-.05-.35,0l-.96.55c-.1.06-.17.19-.17.3v1.11ZM48,18.82c0,.11.08.25.17.3l.96.55c.1.06.25.06.35,0l.96-.55c.1-.06.17-.19.17-.3v-1.11c0-.11-.08-.25-.17-.3l-.96-.55c-.1-.06-.25-.06-.35,0l-.96.55c-.1.06-.17.19-.17.3v1.11ZM43.73,18.48c0,.11.08.25.17.3l.96.55c.1.06.25.06.35,0l.96-.55c.1-.06.18-.19.18-.3v-1.11c0-.11-.08-.25-.18-.3l-.96-.55c-.1-.06-.25-.06-.35,0l-.96.55c-.1.05-.17.19-.17.3v1.11ZM43.73,14.57c0,.11.08.25.17.3l.96.55c.1.06.25.06.35,0l.96-.55c.1-.06.18-.19.18-.3v-1.11c0-.11-.08-.25-.18-.3l-.96-.55c-.1-.06-.25-.06-.35,0l-.96.55c-.1.05-.17.19-.17.3v1.11ZM38.84,14.96c0,.11.08.25.18.3l.96.55c.1.06.25.06.35,0l.96-.55c.1-.05.18-.19.18-.3v-1.11c0-.11-.08-.25-.18-.3l-.96-.55c-.1-.06-.25-.06-.35,0l-.96.55c-.1.06-.18.19-.18.3v1.11ZM39.45,18.82c0,.11.08.25.17.3l.96.55c.1.05.25.05.35,0l.96-.55c.1-.06.18-.19.18-.3v-1.11c0-.11-.08-.25-.18-.3l-.96-.55c-.1-.06-.25-.06-.35,0l-.96.55c-.1.05-.17.19-.17.3v1.11ZM34.07,16.09c0,.11.08.25.17.31l.96.55c.1.06.25.06.35,0l.96-.55c.1-.06.17-.19.17-.31v-1.11c0-.11-.08-.25-.17-.3l-.96-.55c-.1-.06-.25-.06-.35,0l-.96.55c-.1.05-.17.19-.17.3v1.11ZM32.82,12.21c0,.11.08.25.17.3l.96.55c.09.06.25.06.35,0l.96-.55c.1-.06.17-.19.17-.3v-1.11c0-.11-.08-.25-.17-.3l-.96-.55c-.1-.06-.26-.06-.35,0l-.96.55c-.1.06-.17.19-.17.3v1.11ZM27.7,14.34c0,.11.08.25.18.3l.96.55c.1.05.25.05.35,0l.96-.55c.1-.06.17-.19.17-.3v-1.11c0-.11-.08-.25-.17-.3l-.96-.55c-.1-.06-.25-.06-.35,0l-.96.55c-.1.05-.18.19-.18.3v1.11ZM22.97,17.25c0,.11.08.25.18.3l.96.55c.1.06.25.06.35,0l.96-.55c.1-.05.17-.19.17-.3v-1.11c0-.11-.08-.25-.17-.3l-.96-.55c-.1-.06-.25-.06-.35,0l-.96.55c-.1.06-.18.19-.18.3v1.11ZM20.47,14.16c0,.11.08.25.17.3l.96.55c.1.06.25.06.35,0l.96-.55c.1-.06.17-.19.17-.3v-1.11c0-.11-.08-.25-.17-.3l-.96-.55c-.1-.06-.25-.06-.35,0l-.96.55c-.1.05-.17.19-.17.3v1.11ZM15.81,18.22c0,.11.08.25.17.3l.96.55c.1.06.25.06.35,0l.96-.55c.1-.06.17-.19.17-.3v-1.11c0-.11-.08-.25-.17-.3l-.96-.55c-.1-.06-.25-.06-.35,0l-.96.55c-.1.06-.17.19-.17.3v1.11ZM18.75,20.86c0,.11.08.25.18.3l.96.55c.1.05.25.05.35,0l.96-.55c.1-.06.18-.19.18-.3v-1.11c0-.11-.08-.25-.18-.3l-.96-.55c-.1-.06-.25-.06-.35,0l-.96.55c-.1.06-.18.19-.18.3v1.11ZM15.15,25.1c0,.11.08.25.18.3l.96.55c.1.06.25.06.35,0l.96-.55c.1-.06.17-.19.17-.3v-1.11c0-.11-.08-.25-.17-.31l-.96-.55c-.1-.05-.25-.05-.35,0l-.96.55c-.1.06-.18.19-.18.31v1.11ZM11.84,22.96c0,.11.08.25.17.3l.96.55c.1.06.25.06.35,0l.96-.55c.1-.06.18-.19.18-.3v-1.11c0-.11-.08-.25-.18-.3l-.96-.55c-.1-.06-.25-.06-.35,0l-.96.55c-.1.06-.17.19-.17.3v1.11ZM4.65,26.32c0,.11.08.25.18.3l.96.55c.1.06.25.06.35,0l.96-.55c.1-.06.17-.19.17-.3v-1.11c0-.11-.08-.25-.17-.31l-.96-.55c-.1-.06-.25-.06-.35,0l-.96.55c-.1.06-.18.19-.18.31v1.11ZM8.66,28.27c0,.11.08.25.18.3l.96.55c.1.06.25.06.35,0l.96-.55c.1-.06.17-.19.17-.3v-1.11c0-.11-.08-.25-.17-.3l-.96-.55c-.1-.06-.26-.06-.35,0l-.96.55c-.1.06-.18.19-.18.3v1.11ZM12.25,29.85c0,.11.08.25.17.3l.96.55c.1.05.25.05.35,0l.96-.55c.1-.05.18-.19.18-.3v-1.11c0-.11-.08-.25-.18-.3l-.96-.55c-.1-.06-.25-.06-.35,0l-.96.55c-.1.06-.17.19-.17.3v1.11ZM35.28,19.83c0,.11.08.25.18.3l.96.55c.1.05.25.05.35,0l.96-.55c.1-.06.17-.19.17-.3v-1.11c0-.11-.08-.25-.17-.3l-.96-.55c-.1-.06-.25-.06-.35,0l-.96.55c-.1.05-.18.19-.18.3v1.11ZM29.54,17.99c0,.11.08.25.17.3l.96.55c.1.06.25.06.35,0l.96-.55c.1-.06.17-.19.17-.3v-1.11c0-.11-.08-.25-.17-.3l-.96-.55c-.1-.06-.25-.06-.35,0l-.96.55c-.1.05-.17.19-.17.3v1.11ZM31.32,21.48c0,.11.08.25.18.3l.96.55c.1.05.25.05.35,0l.96-.55c.1-.05.18-.19.18-.3v-1.11c0-.11-.08-.25-.18-.3l-.96-.55c-.1-.05-.25-.05-.35,0l-.96.55c-.1.05-.18.19-.18.3v1.11ZM25.36,20.57c0,.11.08.25.17.3l.96.55c.1.06.25.06.35,0l.96-.55c.1-.06.18-.19.18-.3v-1.11c0-.11-.08-.25-.18-.3l-.96-.55c-.1-.06-.25-.06-.35,0l-.96.55c-.1.05-.17.19-.17.3v1.11ZM27.67,23.74c0,.11.08.25.17.3l.96.55c.1.06.25.06.35,0l.96-.55c.1-.06.17-.19.17-.3v-1.11c0-.11-.08-.25-.17-.3l-.96-.55c-.1-.05-.25-.05-.35,0l-.96.55c-.1.06-.17.19-.17.3v1.11ZM21.62,23.76c0,.11.08.25.17.3l.96.55c.1.06.25.06.35,0l.96-.55c.1-.05.18-.19.18-.3v-1.11c0-.11-.08-.25-.18-.3l-.96-.55c-.1-.05-.25-.05-.35,0l-.96.55c-.1.06-.17.19-.17.3v1.11ZM24.41,26.54c0,.11.08.25.18.3l.96.55c.1.06.25.06.35,0l.96-.55c.1-.05.17-.19.17-.3v-1.11c0-.11-.08-.25-.17-.3l-.96-.55c-.1-.06-.25-.06-.35,0l-.96.55c-.1.06-.18.19-.18.3v1.11ZM18.44,27.53c0,.11.08.25.18.3l.96.55c.1.06.25.06.35,0l.96-.55c.1-.06.18-.19.18-.3v-1.11c0-.11-.08-.25-.18-.3l-.96-.55c-.1-.06-.25-.06-.35,0l-.96.55c-.1.05-.18.19-.18.3v1.11ZM15.88,31.74c0,.11.08.25.18.3l.96.55c.1.05.25.05.35,0l.96-.55c.1-.05.17-.19.17-.3v-1.11c0-.11-.08-.25-.17-.3l-.96-.55c-.1-.06-.25-.06-.35,0l-.96.55c-.1.06-.18.19-.18.3v1.11ZM19.38,33.51c0,.11.08.25.18.3l.96.55c.1.05.25.05.35,0l.96-.55c.1-.05.17-.19.17-.3v-1.11c0-.11-.08-.25-.17-.3l-.96-.55c-.1-.06-.25-.06-.35,0l-.96.55c-.1.06-.18.19-.18.3v1.11ZM17.74,37.5c0,.11.08.25.18.3l.96.55c.1.05.25.05.35,0l.96-.55c.1-.06.18-.19.18-.3v-1.11c0-.11-.08-.25-.18-.3l-.96-.55c-.1-.06-.25-.06-.35,0l-.96.55c-.1.05-.18.19-.18.3v1.11ZM14,36.3c0,.11.08.25.17.3l.96.55c.1.05.25.05.35,0l.96-.55c.1-.06.17-.19.17-.3v-1.11c0-.11-.08-.25-.17-.3l-.96-.55c-.1-.06-.25-.06-.35,0l-.96.55c-.1.05-.17.19-.17.3v1.11ZM12.85,41.1c0,.11.08.25.18.3l.96.55c.1.05.25.05.35,0l.96-.55c.1-.05.17-.19.17-.3v-1.11c0-.11-.08-.25-.17-.3l-.96-.55c-.1-.06-.25-.06-.35,0l-.96.55c-.1.06-.18.19-.18.3v1.11ZM8.81,40.43c0,.11.08.25.17.3l.96.55c.1.06.25.06.35,0l.96-.55c.09-.05.17-.19.17-.3v-1.11c0-.11-.08-.25-.17-.3l-.96-.55c-.1-.05-.25-.05-.35,0l-.96.55c-.1.06-.17.19-.17.3v1.11ZM4.93,40.03c0,.11.08.25.18.3l.96.55c.1.05.25.05.35,0l.96-.55c.1-.05.17-.19.17-.3v-1.11c0-.11-.08-.25-.17-.3l-.96-.55c-.1-.06-.25-.06-.35,0l-.96.55c-.1.06-.18.19-.18.3v1.11ZM.5,39.47c0,.11.08.25.18.3l.96.55c.1.05.25.05.35,0l.96-.55c.1-.06.17-.19.17-.3v-1.11c0-.11-.08-.25-.17-.3l-.96-.55c-.1-.06-.25-.06-.35,0l-.96.55c-.1.06-.18.19-.18.3v1.11ZM10.13,35c0,.11.08.25.17.3l.96.56c.1.05.25.05.35,0l.96-.56c.1-.06.18-.19.18-.3v-1.11c0-.11-.08-.25-.18-.3l-.96-.55c-.1-.06-.25-.06-.35,0l-.96.55c-.1.06-.17.19-.17.3v1.11ZM6.34,34.01c0,.11.08.25.18.3l.96.55c.1.06.25.06.35,0l.96-.55c.1-.06.17-.19.17-.3v-1.11c0-.11-.08-.25-.17-.3l-.96-.55c-.1-.06-.26-.06-.35,0l-.96.55c-.1.05-.18.19-.18.3v1.11ZM2.06,32.73c0,.11.08.25.17.3l.96.55c.1.05.25.05.35,0l.96-.55c.1-.06.17-.19.17-.3v-1.11c0-.11-.08-.25-.17-.3l-.96-.56c-.1-.05-.25-.05-.35,0l-.96.56c-.1.05-.17.19-.17.3v1.11ZM16.74,41.7c0,.11.08.25.18.3l.96.55c.1.06.25.06.35,0l.96-.55c.1-.06.18-.19.18-.3v-1.11c0-.11-.08-.25-.18-.3l-.96-.55c-.1-.06-.25-.06-.35,0l-.96.55c-.1.05-.18.19-.18.3v1.11ZM16.41,46c0,.11.08.25.17.3l.96.55c.1.06.25.06.35,0l.96-.55c.1-.06.18-.19.18-.3v-1.11c0-.11-.08-.25-.18-.3l-.96-.56c-.1-.05-.25-.05-.35,0l-.96.56c-.1.05-.17.19-.17.3v1.11ZM12.46,46.02c0,.11.08.25.18.3l.96.55c.1.06.25.06.35,0l.96-.55c.1-.06.17-.19.17-.3v-1.11c0-.11-.08-.25-.17-.3l-.96-.55c-.1-.05-.25-.05-.35,0l-.96.55c-.1.06-.18.19-.18.3v1.11ZM8.38,45.99c0,.11.08.25.18.3l.96.55c.1.05.25.05.35,0l.96-.55c.1-.06.18-.19.18-.3v-1.11c0-.11-.08-.25-.18-.3l-.96-.55c-.1-.05-.25-.05-.35,0l-.96.55c-.1.06-.18.19-.18.3v1.11ZM4.49,46.24c0,.11.08.25.18.3l.96.55c.1.05.25.05.35,0l.96-.55c.1-.05.18-.19.18-.3v-1.11c0-.11-.08-.25-.18-.3l-.96-.55c-.1-.05-.25-.05-.35,0l-.96.55c-.1.06-.18.19-.18.3v1.11ZM0,46.36c0,.11.08.25.17.3l.96.55c.1.06.25.06.35,0l.96-.55c.1-.06.17-.19.17-.3v-1.11c0-.11-.08-.25-.17-.3l-.96-.55c-.1-.06-.25-.06-.35,0l-.96.55c-.1.05-.17.19-.17.3v1.11ZM16.74,50.31c0,.11.08.25.18.3l.96.55c.1.06.25.06.35,0l.96-.55c.1-.05.18-.19.18-.3v-1.11c0-.11-.08-.25-.18-.3l-.96-.55c-.1-.06-.25-.06-.35,0l-.96.55c-.1.06-.18.19-.18.3v1.11ZM12.85,50.94c0,.11.08.25.18.3l.96.55c.1.05.25.05.35,0l.96-.55c.1-.06.18-.19.18-.3v-1.11c0-.11-.08-.25-.18-.3l-.96-.55c-.1-.06-.25-.06-.35,0l-.96.55c-.1.06-.18.19-.18.3v1.11ZM8.81,51.55c0,.11.08.25.17.3l.96.55c.1.06.25.06.35,0l.96-.55c.09-.06.17-.19.17-.3v-1.11c0-.11-.08-.25-.17-.3l-.96-.55c-.1-.06-.25-.06-.35,0l-.96.55c-.1.06-.17.19-.17.3v1.11ZM5.01,52.42c0,.11.08.25.18.3l.96.55c.1.06.25.06.35,0l.96-.55c.1-.06.18-.19.18-.3v-1.11c0-.11-.08-.25-.18-.3l-.96-.55c-.1-.05-.25-.05-.35,0l-.96.55c-.1.06-.18.19-.18.3v1.11ZM.58,53.25c0,.11.08.25.18.3l.96.55c.1.05.25.05.35,0l.96-.55c.1-.06.18-.19.18-.3v-1.11c0-.11-.08-.25-.18-.3l-.96-.55c-.1-.06-.25-.06-.35,0l-.96.55c-.1.06-.18.19-.18.3v1.11ZM17.74,54.51c0,.11.08.25.18.3l.96.55c.1.06.25.06.35,0l.96-.55c.1-.06.18-.19.18-.3v-1.11c0-.11-.08-.25-.18-.3l-.96-.55c-.1-.06-.25-.06-.35,0l-.96.55c-.1.05-.18.19-.18.3v1.11ZM19.38,58.5c0,.11.08.25.18.3l.96.55c.1.06.25.06.35,0l.96-.55c.1-.06.17-.19.17-.3v-1.11c0-.11-.08-.25-.17-.3l-.96-.55c-.1-.06-.25-.06-.35,0l-.96.55c-.1.05-.18.19-.18.3v1.11ZM15.86,60.31c0,.11.08.25.18.3l.96.55c.1.06.25.06.35,0l.96-.55c.1-.06.17-.19.17-.3v-1.11c0-.11-.08-.25-.17-.3l-.96-.55c-.1-.06-.25-.06-.35,0l-.96.55c-.1.06-.18.19-.18.3v1.11ZM12.21,62.13c0,.11.08.25.18.3l.96.55c.1.06.25.06.35,0l.96-.55c.1-.06.17-.19.17-.3v-1.11c0-.11-.08-.25-.17-.3l-.96-.55c-.1-.06-.25-.06-.35,0l-.96.55c-.1.05-.18.19-.18.3v1.11ZM8.87,64.16c0,.11.08.25.18.3l.96.55c.1.05.25.05.35,0l.96-.55c.1-.06.17-.19.17-.3v-1.11c0-.11-.08-.25-.17-.3l-.96-.55c-.1-.06-.25-.06-.35,0l-.96.55c-.1.05-.18.19-.18.3v1.11ZM13.98,55.75c0,.11.08.25.17.3l.96.55c.1.06.25.06.35,0l.96-.55c.1-.06.17-.19.17-.3v-1.11c0-.11-.08-.25-.17-.3l-.96-.55c-.1-.06-.25-.06-.35,0l-.96.55c-.1.05-.17.19-.17.3v1.11ZM10.1,56.98c0,.11.08.25.18.3l.96.55c.1.06.25.06.35,0l.96-.55c.1-.06.17-.19.17-.3v-1.11c0-.11-.08-.25-.17-.3l-.96-.55c-.1-.05-.25-.05-.35,0l-.96.55c-.1.06-.18.19-.18.3v1.11ZM6.48,58.44c0,.11.08.25.17.3l.96.55c.1.05.25.05.35,0l.96-.55c.1-.05.17-.19.17-.3v-1.11c0-.11-.08-.25-.17-.3l-.96-.55c-.1-.06-.25-.06-.35,0l-.96.55c-.1.06-.17.19-.17.3v1.11ZM2.22,59.96c0,.11.08.25.18.3l.96.56c.1.05.25.05.35,0l.96-.56c.1-.05.17-.19.17-.3v-1.11c0-.11-.08-.25-.17-.3l-.96-.55c-.1-.06-.25-.06-.35,0l-.96.55c-.1.06-.18.19-.18.3v1.11ZM21.62,62.18c0,.11.08.25.17.3l.96.55c.1.06.25.06.35,0l.96-.55c.1-.05.18-.19.18-.3v-1.11c0-.11-.08-.25-.18-.3l-.96-.55c-.1-.05-.25-.05-.35,0l-.96.55c-.1.06-.17.19-.17.3v1.11ZM18.41,64.53c0,.11.08.25.18.3l.96.55c.1.06.25.06.35,0l.96-.55c.1-.06.18-.19.18-.3v-1.11c0-.11-.08-.25-.18-.3l-.96-.55c-.1-.06-.25-.06-.35,0l-.96.55c-.1.06-.18.19-.18.3v1.11ZM15.1,66.89c0,.11.08.25.18.3l.96.55c.1.06.25.06.35,0l.96-.55c.1-.05.17-.19.17-.3v-1.11c0-.11-.08-.25-.17-.3l-.96-.55c-.1-.06-.25-.06-.35,0l-.96.55c-.1.06-.18.19-.18.3v1.11ZM18.69,71.14c0,.11.08.25.18.3l.96.55c.1.05.25.05.35,0l.96-.55c.1-.06.18-.19.18-.3v-1.11c0-.11-.08-.25-.18-.3l-.96-.55c-.1-.06-.25-.06-.35,0l-.96.55c-.1.06-.18.19-.18.3v1.11ZM16.14,74.12c0,.11.08.25.18.3l.96.55c.1.06.25.06.35,0l.96-.55c.1-.05.17-.19.17-.3v-1.11c0-.11-.08-.25-.17-.3l-.96-.55c-.1-.05-.25-.05-.35,0l-.96.55c-.1.06-.18.19-.18.3v1.11ZM12.12,69.43c0,.11.08.25.17.3l.96.55c.1.05.25.05.35,0l.96-.55c.1-.06.17-.19.17-.3v-1.11c0-.11-.08-.25-.17-.3l-.96-.55c-.1-.06-.25-.06-.35,0l-.96.55c-.1.05-.17.19-.17.3v1.11ZM8.96,71.78c0,.12.09.27.19.33l.48.28c.11.06.28.06.39,0l.48-.28c.11-.06.19-.21.19-.33v-.56c0-.12-.09-.27-.19-.33l-.48-.28c-.11-.06-.28-.06-.39,0l-.48.28c-.1.06-.19.21-.19.33v.56ZM11.87,75.38c0,.12.09.27.19.33l.48.28c.11.06.28.06.38,0l.48-.28c.11-.06.19-.21.19-.33v-.56c0-.12-.09-.27-.19-.33l-.48-.28c-.11-.06-.28-.06-.38,0l-.48.28c-.11.06-.19.21-.19.33v.56ZM15.11,78.66c0,.12.09.27.19.33l.48.28c.11.06.28.06.38,0l.48-.28c.1-.06.19-.21.19-.33v-.56c0-.12-.09-.27-.19-.33l-.48-.28c-.11-.06-.28-.06-.38,0l-.48.28c-.11.06-.19.21-.19.33v.56ZM18.69,81.58c0,.12.08.27.19.33l.48.28c.1.06.28.06.38,0l.48-.28c.1-.06.19-.21.19-.33v-.56c0-.12-.09-.27-.19-.33l-.48-.28c-.11-.06-.28-.06-.38,0l-.48.28c-.11.06-.19.21-.19.33v.56ZM22.55,84.1c0,.12.09.27.19.33l.48.28c.1.06.28.06.38,0l.48-.28c.11-.06.19-.21.19-.33v-.56c0-.12-.09-.27-.19-.33l-.48-.28c-.11-.06-.28-.06-.38,0l-.48.28c-.11.06-.19.21-.19.33v.56ZM24.6,80.51c0,.12.09.27.19.33l.48.28c.1.06.28.06.39,0l.48-.28c.1-.06.19-.21.19-.33v-.55c0-.12-.09-.27-.19-.33l-.48-.28c-.11-.06-.28-.06-.39,0l-.48.28c-.11.06-.19.21-.19.33v.55ZM28.32,82.43c0,.12.09.27.19.33l.48.28c.11.06.28.06.38,0l.48-.28c.11-.06.19-.21.19-.33v-.56c0-.12-.08-.27-.19-.33l-.48-.28c-.1-.06-.28-.06-.38,0l-.48.28c-.11.06-.19.21-.19.33v.56ZM26.65,86.2c0,.12.09.27.19.33l.48.28c.11.06.28.06.38,0l.48-.28c.1-.06.19-.21.19-.33v-.56c0-.12-.09-.27-.19-.33l-.48-.28c-.11-.06-.28-.06-.38,0l-.48.28c-.11.06-.19.21-.19.33v.56ZM32.21,83.93c0,.12.09.27.19.33l.48.28c.1.06.28.06.38,0l.48-.28c.1-.06.19-.21.19-.33v-.55c0-.12-.09-.27-.19-.33l-.48-.28c-.11-.06-.28-.06-.38,0l-.48.28c-.11.06-.19.21-.19.33v.55ZM30.95,87.86c0,.12.09.27.19.33l.48.28c.1.06.28.06.38,0l.48-.28c.11-.06.19-.21.19-.33v-.56c0-.12-.09-.27-.19-.33l-.48-.28c-.11-.06-.28-.06-.38,0l-.48.28c-.11.06-.19.21-.19.33v.56ZM35.39,89.06c0,.12.09.27.19.33l.48.28c.11.06.28.06.38,0l.48-.28c.11-.06.19-.21.19-.33v-.56c0-.12-.09-.27-.19-.33l-.48-.28c-.1-.06-.28-.06-.38,0l-.48.28c-.1.06-.19.21-.19.33v.56ZM36.24,85.02c0,.12.09.27.19.33l.48.28c.11.06.28.06.38,0l.48-.28c.11-.06.19-.21.19-.33v-.56c0-.12-.09-.27-.19-.33l-.48-.28c-.11-.06-.28-.06-.38,0l-.48.28c-.11.06-.19.21-.19.33v.56ZM37.09,80.97c0,.12.09.27.19.33l.48.28c.1.06.28.06.38,0l.48-.28c.11-.06.19-.21.19-.33v-.55c0-.12-.08-.27-.19-.33l-.48-.28c-.11-.06-.28-.06-.38,0l-.48.28c-.11.06-.19.21-.19.33v.55ZM40.8,81.56c0,.12.09.27.19.33l.48.28c.1.06.28.06.38,0l.48-.28c.1-.06.19-.21.19-.33v-.55c0-.12-.09-.27-.19-.33l-.48-.28c-.1-.06-.28-.06-.38,0l-.48.28c-.1.06-.19.21-.19.33v.55ZM44.53,81.76c0,.12.08.27.19.33l.48.28c.11.06.28.06.38,0l.48-.28c.1-.06.19-.21.19-.33v-.56c0-.12-.09-.27-.19-.33l-.48-.28c-.11-.06-.28-.06-.38,0l-.48.28c-.11.06-.19.21-.19.33v.56ZM48.27,81.56c0,.12.09.27.19.33l.48.28c.11.06.28.06.38,0l.48-.28c.11-.06.19-.21.19-.33v-.55c0-.12-.09-.27-.19-.33l-.48-.28c-.11-.06-.28-.06-.38,0l-.48.28c-.11.06-.19.21-.19.33v.55ZM51.96,80.97c0,.12.09.27.19.33l.48.28c.11.06.28.06.39,0l.48-.28c.11-.06.19-.21.19-.33v-.55c0-.12-.09-.27-.19-.33l-.48-.28c-.11-.06-.28-.06-.39,0l-.48.28c-.11.06-.19.21-.19.33v.55ZM51.11,76.93c0,.12.09.27.19.33l.48.28c.11.06.28.06.38,0l.48-.28c.1-.06.19-.21.19-.33v-.55c0-.12-.09-.27-.19-.33l-.48-.28c-.11-.06-.28-.06-.38,0l-.48.28c-.11.06-.19.21-.19.33v.55ZM54.31,76.07c0,.12.09.27.19.33l.48.28c.11.06.28.06.38,0l.48-.28c.11-.06.19-.21.19-.33v-.56c0-.12-.09-.27-.19-.33l-.48-.28c-.1-.06-.28-.06-.38,0l-.48.28c-.11.06-.19.21-.19.33v.56ZM55.58,80c0,.12.09.27.19.33l.48.28c.11.06.28.06.38,0l.48-.28c.1-.06.19-.21.19-.33v-.55c0-.12-.09-.27-.19-.33l-.48-.28c-.11-.06-.28-.06-.38,0l-.48.28c-.11.06-.19.21-.19.33v.55ZM59.07,78.65c0,.12.09.27.19.33l.48.28c.1.06.28.06.38,0l.48-.28c.11-.06.19-.21.19-.33v-.55c0-.12-.09-.27-.19-.33l-.48-.28c-.11-.06-.28-.06-.38,0l-.48.28c-.11.06-.19.21-.19.33v.55ZM62.41,76.93c0,.12.09.27.19.33l.48.28c.11.06.28.06.38,0l.48-.28c.11-.06.19-.21.19-.33v-.56c0-.12-.09-.27-.19-.33l-.48-.28c-.11-.06-.28-.06-.38,0l-.48.28c-.11.06-.19.21-.19.33v.56ZM60.35,73.35c0,.12.09.27.19.33l.48.28c.11.06.28.06.39,0l.48-.28c.11-.06.19-.21.19-.33v-.56c0-.12-.09-.27-.19-.33l-.48-.28c-.1-.06-.28-.06-.39,0l-.48.28c-.11.06-.19.21-.19.33v.56ZM60.72,68.19c0,.12.09.27.19.33l.48.28c.11.06.28.06.39,0l.48-.28c.11-.06.19-.21.19-.33v-.56c0-.12-.09-.27-.19-.33l-.48-.28c-.11-.06-.28-.06-.39,0l-.48.28c-.11.06-.19.21-.19.33v.56ZM63.13,71.54c0,.12.09.27.19.33l.48.28c.11.06.28.06.38,0l.48-.28c.1-.06.19-.21.19-.33v-.56c0-.12-.09-.27-.19-.33l-.48-.28c-.11-.06-.28-.06-.38,0l-.48.28c-.11.06-.19.21-.19.33v.56ZM65.54,74.87c0,.12.09.27.19.33l.48.28c.1.06.28.06.38,0l.48-.28c.1-.06.19-.21.19-.33v-.55c0-.12-.09-.27-.19-.33l-.48-.28c-.1-.06-.28-.06-.38,0l-.48.28c-.11.06-.19.21-.19.33v.55ZM67.96,78.23c0,.12.09.27.19.33l.48.28c.11.06.28.06.38,0l.48-.28c.11-.06.19-.21.19-.33v-.55c0-.12-.09-.27-.19-.33l-.48-.28c-.11-.06-.28-.06-.38,0l-.48.28c-.11.06-.19.21-.19.33v.55ZM71.2,75.58c0,.12.09.27.19.33l.48.28c.11.06.28.06.38,0l.48-.28c.11-.06.19-.21.19-.33v-.55c0-.12-.09-.27-.19-.33l-.48-.28c-.11-.06-.28-.06-.38,0l-.48.28c-.11.06-.19.21-.19.33v.55ZM73.94,78.65c0,.12.09.27.19.33l.48.28c.11.06.28.06.38,0l.48-.28c.1-.06.19-.21.19-.33v-.55c0-.12-.09-.27-.19-.33l-.48-.28c-.11-.06-.28-.06-.38,0l-.48.28c-.11.06-.19.21-.19.33v.55ZM70.37,81.58c0,.12.09.27.19.33l.48.28c.1.06.28.06.38,0l.48-.28c.11-.06.19-.21.19-.33v-.56c0-.12-.09-.27-.19-.33l-.48-.28c-.11-.06-.28-.06-.38,0l-.48.28c-.11.06-.19.21-.19.33v.56ZM77.19,75.38c0,.12.09.27.19.33l.48.28c.1.06.28.06.38,0l.48-.28c.11-.06.19-.21.19-.33v-.56c0-.12-.09-.27-.19-.33l-.48-.28c-.11-.06-.28-.06-.38,0l-.48.28c-.1.06-.19.21-.19.33v.56ZM80.09,71.77c0,.12.09.27.19.33l.48.28c.11.06.28.06.38,0l.48-.28c.11-.06.19-.21.19-.33v-.56c0-.12-.09-.27-.19-.33l-.48-.28c-.11-.06-.28-.06-.38,0l-.48.28c-.1.06-.19.21-.19.33v.56ZM76.77,69.34c0,.12.09.27.19.33l.48.28c.11.06.28.06.38,0l.48-.28c.11-.06.19-.21.19-.33v-.55c0-.12-.09-.27-.19-.33l-.48-.28c-.11-.06-.28-.06-.38,0l-.48.28c-.11.06-.19.21-.19.33v.55ZM73.45,66.92c0,.12.09.27.19.33l.48.28c.11.06.28.06.38,0l.48-.28c.11-.06.19-.21.19-.33v-.55c0-.12-.09-.27-.19-.33l-.48-.28c-.11-.06-.28-.06-.38,0l-.48.28c-.11.06-.19.21-.19.33v.55ZM70.13,64.48c0,.12.09.27.19.33l.48.28c.11.06.28.06.38,0l.48-.28c.11-.06.19-.21.19-.33v-.56c0-.12-.09-.27-.19-.33l-.48-.28c-.11-.06-.28-.06-.38,0l-.48.28c-.11.06-.19.21-.19.33v.56ZM66.81,62.05c0,.12.09.27.19.33l.48.28c.1.06.28.06.38,0l.48-.28c.1-.06.19-.21.19-.33v-.56c0-.12-.09-.27-.19-.33l-.48-.28c-.1-.06-.28-.06-.38,0l-.48.28c-.1.06-.19.21-.19.33v.56ZM68.38,59.62c0,.12.09.27.19.33l.48.28c.11.06.28.06.38,0l.48-.28c.11-.06.19-.21.19-.33v-.56c0-.12-.09-.27-.19-.33l-.48-.28c-.11-.06-.28-.06-.38,0l-.48.28c-.1.06-.19.21-.19.33v.56ZM71.94,61.69c0,.12.09.27.19.33l.48.28c.1.06.28.06.38,0l.48-.28c.11-.06.19-.21.19-.33v-.55c0-.12-.09-.27-.19-.33l-.48-.28c-.11-.06-.28-.06-.38,0l-.48.28c-.1.06-.19.21-.19.33v.55ZM75.49,63.76c0,.12.09.27.19.33l.48.28c.11.06.28.06.38,0l.48-.28c.11-.06.19-.21.19-.33v-.56c0-.12-.09-.27-.19-.33l-.48-.28c-.11-.06-.28-.06-.38,0l-.48.28c-.11.06-.19.21-.19.33v.56ZM79.04,65.82c0,.12.09.27.19.33l.48.28c.11.06.28.06.38,0l.48-.28c.11-.06.19-.21.19-.33v-.56c0-.12-.09-.27-.19-.33l-.48-.28c-.11-.06-.28-.06-.38,0l-.48.28c-.1.06-.19.21-.19.33v.56ZM82.6,67.89c0,.12.09.27.19.33l.48.28c.11.06.28.06.38,0l.48-.28c.1-.06.19-.21.19-.33v-.55c0-.12-.08-.27-.19-.33l-.48-.28c-.11-.06-.28-.06-.38,0l-.48.28c-.11.06-.19.21-.19.33v.55ZM84.69,63.75c0,.12.09.27.19.33l.48.28c.11.06.28.06.38,0l.48-.28c.11-.06.19-.21.19-.33v-.56c0-.12-.09-.27-.19-.33l-.48-.28c-.1-.06-.28-.06-.38,0l-.48.28c-.1.06-.19.21-.19.33v.56ZM80.94,62.06c0,.12.09.27.19.33l.48.28c.11.06.28.06.38,0l.48-.28c.11-.06.19-.21.19-.33v-.56c0-.12-.08-.27-.19-.33l-.48-.28c-.11-.06-.28-.06-.38,0l-.48.28c-.1.06-.19.21-.19.33v.56ZM77.19,60.39c0,.12.09.27.19.33l.48.28c.11.06.28.06.38,0l.48-.28c.1-.06.19-.21.19-.33v-.55c0-.12-.09-.27-.19-.33l-.48-.28c-.11-.06-.28-.06-.38,0l-.48.28c-.1.06-.19.21-.19.33v.55ZM69.69,57.03c0,.12.09.27.19.33l.48.28c.11.06.28.06.39,0l.48-.28c.11-.06.19-.21.19-.33v-.56c0-.12-.09-.27-.19-.33l-.48-.28c-.11-.06-.28-.06-.39,0l-.48.28c-.11.06-.19.21-.19.33v.56ZM70.72,54.32c0,.12.09.27.19.33l.48.28c.1.06.28.06.38,0l.48-.28c.11-.06.19-.21.19-.33v-.55c0-.12-.09-.27-.19-.33l-.48-.28c-.11-.06-.28-.06-.38,0l-.48.28c-.11.06-.19.21-.19.33v.55ZM74.62,55.59c0,.12.09.27.19.33l.48.28c.1.06.28.06.38,0l.48-.28c.11-.06.19-.21.19-.33v-.55c0-.12-.09-.27-.19-.33l-.48-.28c-.1-.06-.28-.06-.38,0l-.48.28c-.1.06-.19.21-.19.33v.55ZM73.45,58.71c0,.12.09.27.19.33l.48.28c.11.06.28.06.38,0l.48-.28c.11-.06.19-.21.19-.33v-.55c0-.12-.09-.27-.19-.33l-.48-.28c-.11-.06-.28-.06-.38,0l-.48.28c-.1.06-.19.21-.19.33v.55ZM78.53,56.87c0,.12.09.27.19.33l.48.28c.1.06.28.06.38,0l.48-.28c.1-.06.19-.21.19-.33v-.56c0-.12-.09-.27-.19-.33l-.48-.28c-.11-.06-.28-.06-.38,0l-.48.28c-.11.06-.19.21-.19.33v.56ZM82.43,58.15c0,.12.09.27.19.33l.48.28c.1.06.28.06.38,0l.48-.28c.1-.06.19-.21.19-.33v-.55c0-.12-.09-.27-.19-.33l-.48-.28c-.11-.06-.28-.06-.38,0l-.48.28c-.11.06-.19.21-.19.33v.55ZM79.5,53.23c0,.12.09.27.19.33l.48.28c.1.06.28.06.38,0l.48-.28c.11-.06.19-.21.19-.33v-.55c0-.12-.09-.27-.19-.33l-.48-.28c-.11-.06-.28-.06-.38,0l-.48.28c-.11.06-.19.21-.19.33v.55ZM83.51,54.09c0,.12.09.27.19.33l.48.28c.11.06.28.06.38,0l.48-.28c.11-.06.19-.21.19-.33v-.56c0-.12-.09-.27-.19-.33l-.48-.28c-.11-.06-.28-.06-.38,0l-.48.28c-.11.06-.19.21-.19.33v.56ZM87.53,54.95c0,.12.09.27.19.33l.48.28c.11.06.28.06.38,0l.48-.28c.11-.06.19-.21.19-.33v-.55c0-.12-.09-.27-.19-.33l-.48-.28c-.1-.06-.28-.06-.38,0l-.48.28c-.11.06-.19.21-.19.33v.55ZM88.25,50.37c0,.12.09.27.19.33l.48.28c.1.06.28.06.38,0l.48-.28c.11-.06.19-.21.19-.33v-.56c0-.12-.09-.27-.19-.33l-.48-.28c-.11-.06-.28-.06-.38,0l-.48.28c-.11.06-.19.21-.19.33v.56ZM84.16,49.94c0,.12.09.27.19.33l.48.28c.1.06.28.06.38,0l.48-.28c.11-.06.19-.21.19-.33v-.55c0-.12-.09-.27-.19-.33l-.48-.28c-.11-.06-.28-.06-.38,0l-.48.28c-.1.06-.19.21-.19.33v.55ZM80.08,49.5c0,.12.09.27.19.33l.48.28c.11.06.28.06.38,0l.48-.28c.11-.06.19-.21.19-.33v-.55c0-.12-.09-.27-.19-.33l-.48-.28c-.11-.06-.28-.06-.38,0l-.48.28c-.11.06-.19.21-.19.33v.55ZM76,49.07c0,.12.09.27.19.33l.48.28c.1.06.28.06.38,0l.48-.28c.11-.06.19-.21.19-.33v-.56c0-.12-.09-.27-.19-.33l-.48-.28c-.11-.06-.28-.06-.38,0l-.48.28c-.11.06-.19.21-.19.33v.56ZM71.92,48.64c0,.12.09.27.19.33l.48.28c.11.06.28.06.38,0l.48-.28c.11-.06.19-.21.19-.33v-.55c0-.12-.09-.27-.19-.33l-.48-.28c-.11-.06-.28-.06-.38,0l-.48.28c-.11.06-.19.21-.19.33v.55ZM76.17,45.74c0,.12.09.27.19.33l.48.28c.1.06.28.06.38,0l.48-.28c.11-.06.19-.21.19-.33v-.56c0-.12-.09-.27-.19-.33l-.48-.28c-.11-.06-.28-.06-.38,0l-.48.28c-.1.06-.19.21-.19.33v.56ZM72.07,45.74c0,.12.09.27.19.33l.48.28c.11.06.28.06.39,0l.48-.28c.11-.06.19-.21.19-.33v-.56c0-.12-.09-.27-.19-.33l-.48-.28c-.11-.06-.28-.06-.39,0l-.48.28c-.11.06-.19.21-.19.33v.56ZM80.28,45.74c0,.12.09.27.19.33l.48.28c.11.06.28.06.38,0l.48-.28c.1-.06.19-.21.19-.33v-.56c0-.12-.09-.27-.19-.33l-.48-.28c-.11-.06-.28-.06-.38,0l-.48.28c-.11.06-.19.21-.19.33v.56ZM84.39,45.74c0,.12.09.27.19.33l.48.28c.1.06.28.06.38,0l.48-.28c.1-.06.19-.21.19-.33v-.56c0-.12-.09-.27-.19-.33l-.48-.28c-.11-.06-.28-.06-.38,0l-.48.28c-.11.06-.19.21-.19.33v.56ZM88.48,45.74c0,.12.09.27.19.33l.48.28c.1.06.28.06.38,0l.48-.28c.11-.06.19-.21.19-.33v-.56c0-.12-.09-.27-.19-.33l-.48-.28c-.1-.06-.28-.06-.38,0l-.48.28c-.11.06-.19.21-.19.33v.56ZM88.25,41.11c0,.12.09.27.19.33l.48.28c.1.06.28.06.38,0l.48-.28c.11-.06.19-.21.19-.33v-.55c0-.12-.09-.27-.19-.33l-.48-.28c-.11-.06-.28-.06-.38,0l-.48.28c-.11.06-.19.21-.19.33v.55ZM84.16,41.54c0,.12.09.27.19.33l.48.28c.1.06.28.06.38,0l.48-.28c.11-.06.19-.21.19-.33v-.55c0-.12-.09-.27-.19-.33l-.48-.28c-.11-.06-.28-.06-.38,0l-.48.28c-.1.06-.19.21-.19.33v.55ZM80.08,41.98c0,.12.09.27.19.33l.48.28c.11.06.28.06.38,0l.48-.28c.11-.06.19-.21.19-.33v-.55c0-.12-.09-.27-.19-.33l-.48-.28c-.11-.06-.28-.06-.38,0l-.48.28c-.11.06-.19.21-.19.33v.55ZM76,42.41c0,.12.09.27.19.33l.48.28c.1.06.28.06.38,0l.48-.28c.11-.06.19-.21.19-.33v-.56c0-.12-.09-.27-.19-.33l-.48-.28c-.11-.06-.28-.06-.38,0l-.48.28c-.11.06-.19.21-.19.33v.56ZM75.49,39.11c0,.12.09.27.19.33l.48.28c.11.06.28.06.38,0l.48-.28c.1-.06.19-.21.19-.33v-.55c0-.12-.09-.27-.19-.33l-.48-.28c-.1-.06-.28-.06-.38,0l-.48.28c-.11.06-.19.21-.19.33v.55ZM79.49,38.25c0,.12.09.27.19.33l.48.28c.11.06.28.06.38,0l.48-.28c.11-.06.19-.21.19-.33v-.56c0-.12-.09-.27-.19-.33l-.48-.28c-.11-.06-.28-.06-.38,0l-.48.28c-.11.06-.19.21-.19.33v.56ZM83.51,37.39c0,.12.09.27.19.33l.48.28c.11.06.28.06.39,0l.48-.28c.11-.06.19-.21.19-.33v-.56c0-.12-.09-.27-.19-.33l-.48-.28c-.11-.06-.28-.06-.39,0l-.48.28c-.1.06-.19.21-.19.33v.56ZM87.52,36.53c0,.12.09.27.19.33l.48.28c.11.06.28.06.38,0l.48-.28c.11-.06.19-.21.19-.33v-.55c0-.12-.09-.27-.19-.33l-.48-.28c-.11-.06-.28-.06-.38,0l-.48.28c-.1.06-.19.21-.19.33v.55ZM86.33,32.05c0,.12.08.27.19.33l.48.28c.11.06.28.06.38,0l.48-.28c.11-.06.19-.21.19-.33v-.56c0-.12-.09-.27-.19-.33l-.48-.28c-.11-.06-.28-.06-.38,0l-.48.28c-.11.06-.19.21-.19.33v.56ZM82.43,33.34c0,.12.09.27.19.33l.48.28c.1.06.28.06.38,0l.48-.28c.1-.06.19-.21.19-.33v-.56c0-.12-.09-.27-.19-.33l-.48-.28c-.11-.06-.28-.06-.38,0l-.48.28c-.11.06-.19.21-.19.33v.56ZM78.53,34.61c0,.12.09.27.19.33l.48.28c.11.06.28.06.38,0l.48-.28c.11-.06.19-.21.19-.33v-.55c0-.12-.08-.27-.19-.33l-.48-.28c-.11-.06-.28-.06-.38,0l-.48.28c-.11.06-.19.21-.19.33v.55ZM74.62,35.89c0,.12.09.27.19.33l.48.28c.1.06.28.06.38,0l.48-.28c.11-.06.19-.21.19-.33v-.56c0-.12-.09-.27-.19-.33l-.48-.28c-.1-.06-.28-.06-.38,0l-.48.28c-.1.06-.19.21-.19.33v.56ZM69.69,34.46c0,.12.09.27.19.33l.48.28c.1.06.28.06.38,0l.48-.28c.11-.06.19-.21.19-.33v-.55c0-.12-.09-.27-.19-.33l-.48-.28c-.11-.06-.28-.06-.38,0l-.48.28c-.11.06-.19.21-.19.33v.55ZM73.44,32.77c0,.12.09.27.19.33l.48.28c.11.06.28.06.38,0l.48-.28c.11-.06.19-.21.19-.33v-.56c0-.12-.09-.27-.19-.33l-.48-.28c-.1-.06-.28-.06-.38,0l-.48.28c-.11.06-.19.21-.19.33v.56ZM77.19,31.09c0,.12.09.27.19.33l.48.28c.11.06.28.06.39,0l.48-.28c.1-.06.19-.21.19-.33v-.55c0-.12-.09-.27-.19-.33l-.48-.28c-.11-.06-.28-.06-.39,0l-.48.28c-.1.06-.19.21-.19.33v.55ZM80.94,29.41c0,.12.08.27.19.33l.48.28c.11.06.28.06.38,0l.48-.28c.11-.06.19-.21.19-.33v-.55c0-.12-.09-.27-.19-.33l-.48-.28c-.11-.06-.28-.06-.38,0l-.48.28c-.11.06-.19.21-.19.33v.55ZM84.69,27.73c0,.12.09.27.19.33l.48.28c.11.06.28.06.38,0l.48-.28c.11-.06.19-.21.19-.33v-.55c0-.12-.09-.27-.19-.33l-.48-.28c-.1-.06-.28-.06-.38,0l-.48.28c-.1.06-.19.21-.19.33v.55ZM82.6,23.6c0,.12.09.27.19.33l.48.28c.11.06.28.06.38,0l.48-.28c.11-.06.19-.21.19-.33v-.56c0-.12-.09-.27-.19-.33l-.48-.28c-.11-.06-.28-.06-.38,0l-.48.28c-.11.06-.19.21-.19.33v.56ZM79.04,25.67c0,.12.09.27.19.33l.48.28c.11.06.28.06.39,0l.48-.28c.11-.06.19-.21.19-.33v-.56c0-.12-.08-.27-.19-.33l-.48-.28c-.11-.06-.28-.06-.39,0l-.48.28c-.1.06-.19.21-.19.33v.56ZM75.49,27.73c0,.12.09.27.19.33l.48.28c.11.06.28.06.38,0l.48-.28c.11-.06.19-.21.19-.33v-.55c0-.12-.09-.27-.19-.33l-.48-.28c-.11-.06-.28-.06-.38,0l-.48.28c-.11.06-.19.21-.19.33v.55ZM71.94,29.81c0,.12.09.27.19.33l.48.28c.11.06.28.06.38,0l.48-.28c.1-.06.19-.21.19-.33v-.56c0-.12-.09-.27-.19-.33l-.48-.28c-.11-.06-.28-.06-.38,0l-.48.28c-.11.06-.19.21-.19.33v.56ZM68.38,31.87c0,.12.09.27.19.33l.48.28c.11.06.28.06.38,0l.48-.28c.11-.06.19-.21.19-.33v-.55c0-.12-.09-.27-.19-.33l-.48-.28c-.11-.06-.28-.06-.38,0l-.48.28c-.1.06-.19.21-.19.33v.55ZM70.13,27.01c0,.12.09.27.19.33l.48.28c.1.06.28.06.38,0l.48-.28c.11-.06.19-.21.19-.33v-.55c0-.12-.09-.27-.19-.34l-.48-.28c-.11-.06-.28-.06-.38,0l-.48.28c-.11.06-.19.21-.19.34v.55ZM73.45,24.57c0,.12.09.27.19.33l.48.28c.11.06.28.06.38,0l.48-.28c.11-.06.19-.21.19-.33v-.55c0-.12-.09-.27-.19-.33l-.48-.28c-.11-.06-.28-.06-.38,0l-.48.28c-.1.06-.19.21-.19.33v.55ZM76.77,22.14c0,.12.09.27.19.33l.48.28c.11.06.28.06.39,0l.48-.28c.11-.06.19-.21.19-.33v-.55c0-.12-.09-.27-.19-.33l-.48-.28c-.11-.06-.28-.06-.39,0l-.48.28c-.1.06-.19.21-.19.33v.55ZM80.09,19.71c0,.12.09.27.19.33l.48.28c.11.06.28.06.39,0l.48-.28c.11-.06.19-.21.19-.33v-.55c0-.12-.09-.27-.19-.33l-.48-.28c-.11-.06-.28-.06-.39,0l-.48.28c-.11.06-.19.21-.19.33v.55ZM77.19,16.11c0,.12.09.27.19.33l.48.28c.11.06.28.06.38,0l.48-.28c.11-.06.19-.21.19-.33v-.55c0-.12-.09-.27-.19-.33l-.48-.28c-.11-.06-.28-.06-.38,0l-.48.28c-.1.06-.19.21-.19.33v.55ZM74.14,18.88c0,.12.09.27.19.33l.48.28c.11.06.28.06.38,0l.48-.28c.1-.06.19-.21.19-.33v-.56c0-.12-.09-.27-.19-.33l-.48-.28c-.11-.06-.28-.06-.38,0l-.48.28c-.11.06-.19.21-.19.33v.56ZM71.1,21.65c0,.12.09.27.19.33l.48.28c.11.06.28.06.38,0l.48-.28c.11-.06.19-.21.19-.33v-.56c0-.12-.09-.27-.19-.33l-.48-.28c-.1-.06-.28-.06-.38,0l-.48.28c-.11.06-.19.21-.19.33v.56ZM68.04,24.41c0,.12.09.27.19.33l.48.28c.11.06.28.06.38,0l.48-.28c.11-.06.19-.21.19-.33v-.56c0-.12-.09-.27-.19-.33l-.48-.28c-.11-.06-.28-.06-.38,0l-.48.28c-.11.06-.19.21-.19.33v.56ZM65,27.18c0,.12.09.27.19.33l.48.28c.11.06.28.06.38,0l.48-.28c.11-.06.19-.21.19-.33v-.55c0-.12-.09-.27-.19-.33l-.48-.28c-.11-.06-.28-.06-.38,0l-.48.28c-.1.06-.19.21-.19.33v.55ZM62.96,25.13c0,.12.09.27.19.33l.48.28c.11.06.28.06.38,0l.48-.28c.11-.06.19-.21.19-.33v-.55c0-.12-.08-.27-.19-.33l-.48-.28c-.11-.06-.28-.06-.38,0l-.48.28c-.11.06-.19.21-.19.33v.55ZM65.7,22.05c0,.12.09.27.19.33l.48.28c.11.06.28.06.38,0l.48-.28c.1-.06.19-.21.19-.33v-.56c0-.12-.09-.27-.19-.33l-.48-.28c-.11-.06-.28-.06-.38,0l-.48.28c-.11.06-.19.21-.19.33v.56ZM68.45,18.98c0,.12.09.27.19.33l.48.28c.1.06.28.06.38,0l.48-.28c.1-.06.19-.21.19-.33v-.56c0-.12-.09-.27-.19-.33l-.48-.28c-.11-.06-.28-.06-.38,0l-.48.28c-.11.06-.19.21-.19.33v.56ZM63.13,19.95c0,.12.09.27.19.33l.48.28c.1.06.28.06.38,0l.48-.28c.11-.06.19-.21.19-.33v-.56c0-.12-.08-.27-.19-.33l-.48-.28c-.11-.06-.28-.06-.38,0l-.48.28c-.11.06-.19.21-.19.33v.56ZM71.2,15.91c0,.12.09.27.19.33l.48.28c.1.06.28.06.38,0l.48-.28c.11-.06.19-.21.19-.33v-.56c0-.12-.09-.27-.19-.33l-.48-.28c-.11-.06-.28-.06-.38,0l-.48.28c-.11.06-.19.21-.19.33v.56ZM73.94,12.84c0,.12.09.27.19.33l.48.28c.1.06.28.06.38,0l.48-.28c.1-.06.19-.21.19-.33v-.56c0-.12-.09-.27-.19-.33l-.48-.28c-.11-.06-.28-.06-.38,0l-.48.28c-.11.06-.19.21-.19.33v.56ZM67.95,13.26c0,.12.09.27.19.33l.48.28c.1.06.28.06.38,0l.48-.28c.1-.06.19-.21.19-.33v-.56c0-.12-.09-.27-.19-.33l-.48-.28c-.11-.06-.28-.06-.38,0l-.48.28c-.11.06-.19.21-.19.33v.56ZM70.36,9.92c0,.12.09.27.19.33l.48.28c.11.06.28.06.38,0l.48-.28c.11-.06.19-.21.19-.33v-.56c0-.12-.09-.27-.19-.33l-.48-.28c-.11-.06-.28-.06-.38,0l-.48.28c-.11.06-.19.21-.19.33v.56ZM66.5,7.39c0,.12.09.27.19.33l.48.28c.1.06.28.06.38,0l.48-.28c.1-.06.19-.21.19-.33v-.55c0-.12-.09-.27-.19-.33l-.48-.28c-.11-.06-.28-.06-.38,0l-.48.28c-.11.06-.19.21-.19.33v.55ZM64.45,10.97c0,.12.09.27.19.33l.48.28c.1.06.28.06.38,0l.48-.28c.11-.06.19-.21.19-.33v-.55c0-.12-.09-.27-.19-.33l-.48-.28c-.11-.06-.28-.06-.38,0l-.48.28c-.11.06-.19.21-.19.33v.55ZM60.73,9.07c0,.12.09.27.19.33l.48.28c.11.06.28.06.38,0l.48-.28c.11-.06.19-.21.19-.33v-.56c0-.12-.09-.27-.19-.33l-.48-.28c-.11-.06-.28-.06-.38,0l-.48.28c-.11.06-.19.21-.19.33v.56ZM62.4,5.29c0,.12.09.27.19.33l.48.28c.11.06.28.06.38,0l.48-.28c.1-.06.19-.21.19-.33v-.56c0-.12-.09-.27-.19-.33l-.48-.28c-.11-.06-.28-.06-.38,0l-.48.28c-.1.06-.19.21-.19.33v.56ZM58.11,3.62c0,.12.09.27.19.33l.48.28c.1.06.28.06.38,0l.48-.28c.1-.06.19-.21.19-.33v-.55c0-.12-.09-.27-.19-.33l-.48-.28c-.11-.06-.28-.06-.38,0l-.48.28c-.11.06-.19.21-.19.33v.55ZM56.84,7.56c0,.12.09.27.19.33l.48.28c.11.06.28.06.38,0l.48-.28c.11-.06.19-.21.19-.33v-.56c0-.12-.09-.27-.19-.33l-.48-.28c-.11-.06-.28-.06-.38,0l-.48.28c-.11.06-.19.21-.19.33v.56ZM52.81,6.47c0,.12.09.27.19.33l.48.28c.1.06.28.06.38,0l.48-.28c.1-.06.19-.21.19-.33v-.56c0-.12-.09-.27-.19-.33l-.48-.28c-.11-.06-.28-.06-.38,0l-.48.28c-.11.06-.19.21-.19.33v.56ZM48.69,5.81c0,.12.09.27.19.33l.48.28c.11.06.28.06.38,0l.48-.28c.11-.06.19-.21.19-.33v-.55c0-.12-.09-.27-.19-.33l-.48-.28c-.1-.06-.28-.06-.38,0l-.48.28c-.11.06-.19.21-.19.33v.55ZM49.12,1.7c0,.12.09.27.19.33l.48.28c.11.06.28.06.38,0l.48-.28c.1-.06.19-.21.19-.33v-.56c0-.12-.09-.27-.19-.33l-.48-.28c-.11-.06-.28-.06-.38,0l-.48.28c-.11.06-.19.21-.19.33v.56ZM44.52,1.46c0,.12.09.27.19.33l.48.28c.11.06.28.06.39,0l.48-.28c.11-.06.19-.21.19-.33v-.56c0-.12-.09-.27-.19-.33l-.48-.28c-.11-.06-.28-.06-.39,0l-.48.28c-.11.06-.19.21-.19.33v.56ZM44.52,5.6c0,.12.09.27.19.33l.48.28c.11.06.28.06.39,0l.48-.28c.11-.06.19-.21.19-.33v-.56c0-.12-.09-.27-.19-.33l-.48-.28c-.11-.06-.28-.06-.39,0l-.48.28c-.11.06-.19.21-.19.33v.56ZM44.52,9.73c0,.12.09.27.19.33l.48.28c.11.06.28.06.39,0l.48-.28c.11-.06.19-.21.19-.33v-.55c0-.12-.09-.27-.19-.33l-.48-.28c-.11-.06-.28-.06-.39,0l-.48.28c-.11.06-.19.21-.19.33v.55ZM40.78,9.93c0,.12.09.27.19.33l.48.28c.1.06.28.06.38,0l.48-.28c.1-.06.19-.21.19-.33v-.56c0-.12-.09-.27-.19-.33l-.48-.28c-.1-.06-.28-.06-.38,0l-.48.28c-.11.06-.19.21-.19.33v.56ZM40.36,5.81c0,.12.09.27.19.33l.48.28c.1.06.28.06.38,0l.48-.28c.1-.06.19-.21.19-.33v-.55c0-.12-.09-.27-.19-.33l-.48-.28c-.11-.06-.28-.06-.38,0l-.48.28c-.11.06-.19.21-.19.33v.55ZM39.93,1.7c0,.12.09.27.19.33l.48.28c.11.06.28.06.38,0l.48-.28c.11-.06.19-.21.19-.33v-.56c0-.12-.09-.27-.19-.33l-.48-.28c-.11-.06-.28-.06-.38,0l-.48.28c-.11.06-.19.21-.19.33v.56ZM35.39,2.43c0,.12.09.27.19.33l.48.28c.11.06.28.06.38,0l.48-.28c.11-.06.19-.21.19-.33v-.56c0-.12-.08-.27-.19-.33l-.48-.28c-.11-.06-.28-.06-.38,0l-.48.28c-.11.06-.19.21-.19.33v.56ZM36.24,6.47c0,.12.09.27.19.33l.48.28c.1.06.28.06.38,0l.48-.28c.11-.06.19-.21.19-.33v-.55c0-.12-.09-.27-.19-.33l-.48-.28c-.1-.06-.28-.06-.38,0l-.48.28c-.1.06-.19.21-.19.33v.55ZM32.21,7.56c0,.12.09.27.19.33l.48.28c.1.06.28.06.38,0l.48-.28c.11-.06.19-.21.19-.33v-.56c0-.12-.09-.27-.19-.33l-.48-.28c-.11-.06-.28-.06-.38,0l-.48.28c-.11.06-.19.21-.19.33v.56ZM30.94,3.63c0,.12.09.27.19.33l.48.28c.11.06.28.06.38,0l.48-.28c.11-.06.19-.21.19-.33v-.55c0-.12-.09-.27-.19-.33l-.48-.28c-.11-.06-.28-.06-.38,0l-.48.28c-.11.06-.19.21-.19.33v.55ZM26.65,5.29c0,.12.09.27.19.33l.48.28c.11.06.28.06.38,0l.48-.28c.11-.06.19-.21.19-.33v-.56c0-.12-.09-.27-.19-.33l-.48-.28c-.11-.06-.28-.06-.38,0l-.48.28c-.11.06-.19.21-.19.33v.56ZM28.32,9.07c0,.12.09.27.19.33l.48.28c.11.06.28.06.38,0l.48-.28c.11-.06.19-.21.19-.33v-.56c0-.12-.09-.27-.19-.33l-.48-.28c-.11-.06-.28-.06-.38,0l-.48.28c-.11.06-.19.21-.19.33v.56ZM22.55,7.39c0,.12.09.27.19.33l.48.28c.1.06.28.06.38,0l.48-.28c.1-.06.19-.21.19-.33v-.56c0-.12-.09-.27-.19-.33l-.48-.28c-.11-.06-.28-.06-.38,0l-.48.28c-.11.06-.19.21-.19.33v.56ZM18.69,9.92c0,.12.08.27.19.33l.48.28c.1.06.28.06.38,0l.48-.28c.1-.06.19-.21.19-.33v-.56c0-.12-.09-.27-.19-.33l-.48-.28c-.11-.06-.28-.06-.38,0l-.48.28c-.11.06-.19.21-.19.33v.56ZM15.11,12.84c0,.12.09.27.19.33l.48.28c.1.06.28.06.38,0l.48-.28c.11-.06.19-.21.19-.33v-.56c0-.12-.09-.27-.19-.33l-.48-.28c-.11-.06-.28-.06-.38,0l-.48.28c-.1.06-.19.21-.19.33v.56ZM11.86,16.12c0,.12.09.27.19.33l.48.28c.1.06.28.06.38,0l.48-.28c.11-.06.19-.21.19-.33v-.55c0-.12-.09-.27-.19-.33l-.48-.28c-.11-.06-.28-.06-.38,0l-.48.28c-.1.06-.19.21-.19.33v.55ZM51.96,10.51c0,.12.09.27.19.33l.48.28c.11.06.28.06.38,0l.48-.28c.11-.06.19-.21.19-.33v-.56c0-.12-.09-.27-.19-.33l-.48-.28c-.1-.06-.28-.06-.38,0l-.48.28c-.1.06-.19.21-.19.33v.56ZM48.26,9.92c0,.12.09.27.19.33l.48.28c.11.06.28.06.38,0l.48-.28c.1-.06.19-.21.19-.33v-.56c0-.12-.09-.27-.19-.33l-.48-.28c-.11-.06-.28-.06-.38,0l-.48.28c-.1.06-.19.21-.19.33v.56ZM55.58,11.49c0,.12.09.27.19.33l.48.28c.1.06.28.06.38,0l.48-.28c.11-.06.19-.21.19-.33v-.56c0-.12-.09-.27-.19-.33l-.48-.28c-.11-.06-.28-.06-.38,0l-.48.28c-.11.06-.19.21-.19.33v.56ZM59.07,12.84c0,.12.09.27.19.33l.48.28c.11.06.28.06.38,0l.48-.28c.11-.06.19-.21.19-.33v-.56c0-.12-.09-.27-.19-.33l-.48-.28c-.11-.06-.28-.06-.38,0l-.48.28c-.1.06-.19.21-.19.33v.56ZM57.4,16.61c0,.12.09.27.19.33l.48.28c.11.06.28.06.39,0l.48-.28c.1-.06.19-.21.19-.33v-.55c0-.12-.09-.27-.19-.33l-.48-.28c-.11-.06-.28-.06-.39,0l-.48.28c-.11.06-.19.21-.19.33v.55ZM60.35,18.14c0,.12.09.27.19.33l.48.28c.1.06.28.06.38,0l.48-.28c.11-.06.19-.21.19-.33v-.56c0-.12-.09-.27-.19-.33l-.48-.28c-.11-.06-.28-.06-.38,0l-.48.28c-.11.06-.19.21-.19.33v.56ZM54.3,15.42c0,.12.09.27.19.33l.48.28c.11.06.28.06.38,0l.48-.28c.1-.06.19-.21.19-.33v-.55c0-.12-.09-.27-.19-.33l-.48-.28c-.11-.06-.28-.06-.38,0l-.48.28c-.11.06-.19.21-.19.33v.55ZM53.66,2.43c0,.12.09.27.19.33l.48.28c.11.06.28.06.38,0l.48-.28c.11-.06.19-.21.19-.33v-.56c0-.12-.09-.27-.19-.33l-.48-.28c-.11-.06-.28-.06-.38,0l-.48.28c-.11.06-.19.21-.19.33v.56ZM65.54,16.61c0,.12.09.27.19.33l.48.28c.11.06.28.06.38,0l.48-.28c.11-.06.19-.21.19-.33v-.55c0-.12-.09-.27-.19-.33l-.48-.28c-.11-.06-.28-.06-.38,0l-.48.28c-.11.06-.19.21-.19.33v.55ZM62.4,14.55c0,.12.09.27.19.33l.48.28c.11.06.28.06.38,0l.48-.28c.1-.06.19-.21.19-.33v-.55c0-.12-.09-.27-.19-.33l-.48-.28c-.11-.06-.28-.06-.38,0l-.48.28c-.1.06-.19.21-.19.33v.55ZM66.81,29.43c0,.12.09.27.19.33l.48.28c.1.06.28.06.38,0l.48-.28c.1-.06.19-.21.19-.33v-.55c0-.12-.09-.27-.19-.33l-.48-.28c-.1-.06-.28-.06-.38,0l-.48.28c-.1.06-.19.21-.19.33v.55ZM70.72,37.17c0,.12.09.27.19.33l.48.28c.11.06.28.06.38,0l.48-.28c.11-.06.19-.21.19-.33v-.56c0-.12-.09-.27-.19-.33l-.48-.28c-.11-.06-.28-.06-.38,0l-.48.28c-.11.06-.19.21-.19.33v.56ZM71.47,39.97c0,.12.09.27.19.33l.48.28c.1.06.28.06.38,0l.48-.28c.11-.06.19-.21.19-.33v-.55c0-.12-.09-.27-.19-.33l-.48-.28c-.11-.06-.28-.06-.38,0l-.48.28c-.11.06-.19.21-.19.33v.55ZM71.92,42.84c0,.12.09.27.19.33l.48.28c.11.06.28.06.38,0l.48-.28c.11-.06.19-.21.19-.33v-.56c0-.12-.09-.27-.19-.33l-.48-.28c-.11-.06-.28-.06-.38,0l-.48.28c-.11.06-.19.21-.19.33v.56ZM86.34,59.43c0,.12.09.27.19.33l.48.28c.1.06.28.06.38,0l.48-.28c.11-.06.19-.21.19-.33v-.55c0-.12-.09-.27-.19-.33l-.48-.28c-.11-.06-.28-.06-.38,0l-.48.28c-.1.06-.19.21-.19.33v.55ZM71.47,51.51c0,.12.09.27.19.33l.48.28c.11.06.28.06.38,0l.48-.28c.11-.06.19-.21.19-.33v-.56c0-.12-.09-.27-.19-.33l-.48-.28c-.11-.06-.28-.06-.38,0l-.48.28c-.11.06-.19.21-.19.33v.56ZM75.49,52.37c0,.12.09.27.19.33l.48.28c.11.06.28.06.38,0l.48-.28c.1-.06.19-.21.19-.33v-.56c0-.12-.09-.27-.19-.33l-.48-.28c-.1-.06-.28-.06-.38,0l-.48.28c-.11.06-.19.21-.19.33v.56ZM65.7,69.44c0,.12.09.27.19.33l.48.28c.1.06.28.06.38,0l.48-.28c.1-.06.19-.21.19-.33v-.55c0-.12-.09-.27-.19-.33l-.48-.28c-.11-.06-.28-.06-.38,0l-.48.28c-.11.06-.19.21-.19.33v.55ZM62.96,66.37c0,.12.09.27.19.33l.48.28c.11.06.28.06.38,0l.48-.28c.11-.06.19-.21.19-.33v-.55c0-.12-.08-.27-.19-.33l-.48-.28c-.11-.06-.28-.06-.38,0l-.48.28c-.11.06-.19.21-.19.33v.55ZM65,64.32c0,.12.09.27.19.33l.48.28c.11.06.28.06.39,0l.48-.28c.11-.06.19-.21.19-.33v-.56c0-.12-.09-.27-.19-.33l-.48-.28c-.11-.06-.28-.06-.39,0l-.48.28c-.1.06-.19.21-.19.33v.56ZM68.05,67.09c0,.12.09.27.19.33l.48.28c.11.06.28.06.38,0l.48-.28c.1-.06.19-.21.19-.33v-.55c0-.12-.09-.27-.19-.33l-.48-.28c-.11-.06-.28-.06-.38,0l-.48.28c-.1.06-.19.21-.19.33v.55ZM71.1,69.85c0,.12.09.27.19.33l.48.28c.11.06.28.06.38,0l.48-.28c.1-.06.19-.21.19-.33v-.56c0-.12-.09-.27-.19-.33l-.48-.28c-.11-.06-.28-.06-.38,0l-.48.28c-.11.06-.19.21-.19.33v.56ZM74.14,72.62c0,.12.09.27.19.33l.48.28c.11.06.28.06.38,0l.48-.28c.1-.06.19-.21.19-.33v-.56c0-.12-.09-.27-.19-.33l-.48-.28c-.11-.06-.28-.06-.38,0l-.48.28c-.11.06-.19.21-.19.33v.56ZM68.45,72.51c0,.12.09.27.19.33l.48.28c.11.06.28.06.38,0l.48-.28c.11-.06.19-.21.19-.33v-.55c0-.12-.09-.27-.19-.33l-.48-.28c-.1-.06-.28-.06-.38,0l-.48.28c-.11.06-.19.21-.19.33v.55ZM57.4,74.87c0,.12.09.27.19.33l.48.28c.11.06.28.06.38,0l.48-.28c.1-.06.19-.21.19-.33v-.55c0-.12-.09-.27-.19-.33l-.48-.28c-.11-.06-.28-.06-.38,0l-.48.28c-.1.06-.19.21-.19.33v.55ZM64.46,80.51c0,.12.09.27.19.33l.48.28c.11.06.28.06.38,0l.48-.28c.11-.06.19-.21.19-.33v-.55c0-.12-.09-.27-.19-.33l-.48-.28c-.11-.06-.28-.06-.38,0l-.48.28c-.11.06-.19.21-.19.33v.55ZM40.36,85.67c0,.12.09.27.19.33l.48.28c.1.06.28.06.38,0l.48-.28c.11-.06.19-.21.19-.33v-.55c0-.12-.09-.27-.19-.33l-.48-.28c-.11-.06-.28-.06-.38,0l-.48.28c-.11.06-.19.21-.19.33v.55ZM44.53,85.89c0,.12.08.27.19.33l.48.28c.11.06.28.06.38,0l.48-.28c.1-.06.19-.21.19-.33v-.56c0-.12-.09-.27-.19-.33l-.48-.28c-.11-.06-.28-.06-.38,0l-.48.28c-.11.06-.19.21-.19.33v.56ZM44.53,90.03c0,.12.08.27.19.33l.48.28c.1.06.28.06.38,0l.48-.28c.1-.06.19-.21.19-.33v-.55c0-.12-.09-.27-.19-.33l-.48-.28c-.1-.06-.28-.06-.38,0l-.48.28c-.11.06-.19.21-.19.33v.55ZM49.13,89.79c0,.12.09.27.19.33l.48.28c.11.06.28.06.38,0l.48-.28c.1-.06.19-.21.19-.33v-.56c0-.12-.09-.27-.19-.33l-.48-.28c-.1-.06-.28-.06-.38,0l-.48.28c-.11.06-.19.21-.19.33v.56ZM48.7,85.67c0,.12.09.27.19.33l.48.28c.11.06.28.06.38,0l.48-.28c.11-.06.19-.21.19-.33v-.55c0-.12-.09-.27-.19-.33l-.48-.28c-.11-.06-.28-.06-.38,0l-.48.28c-.11.06-.19.21-.19.33v.55ZM52.82,85.02c0,.12.09.27.19.33l.48.28c.11.06.28.06.38,0l.48-.28c.1-.06.19-.21.19-.33v-.56c0-.12-.09-.27-.19-.33l-.48-.28c-.11-.06-.28-.06-.38,0l-.48.28c-.11.06-.19.21-.19.33v.56ZM53.67,89.06c0,.12.09.27.19.33l.48.28c.11.06.28.06.38,0l.48-.28c.11-.06.19-.21.19-.33v-.56c0-.12-.09-.27-.19-.33l-.48-.28c-.11-.06-.28-.06-.38,0l-.48.28c-.11.06-.19.21-.19.33v.56ZM58.12,87.86c0,.12.09.27.19.33l.48.28c.11.06.28.06.38,0l.48-.28c.11-.06.19-.21.19-.33v-.56c0-.12-.09-.27-.19-.33l-.48-.28c-.11-.06-.28-.06-.38,0l-.48.28c-.1.06-.19.21-.19.33v.56ZM56.85,83.92c0,.12.09.27.19.33l.48.28c.11.06.28.06.38,0l.48-.28c.1-.06.19-.21.19-.33v-.56c0-.12-.09-.27-.19-.33l-.48-.28c-.11-.06-.28-.06-.38,0l-.48.28c-.1.06-.19.21-.19.33v.56ZM60.74,82.43c0,.12.09.27.19.33l.48.28c.11.06.28.06.38,0l.48-.28c.11-.06.19-.21.19-.33v-.55c0-.12-.09-.27-.19-.33l-.48-.28c-.11-.06-.28-.06-.38,0l-.48.28c-.11.06-.19.21-.19.33v.55ZM62.41,86.2c0,.12.09.27.19.33l.48.28c.11.06.28.06.38,0l.48-.28c.11-.06.19-.21.19-.33v-.56c0-.12-.09-.27-.19-.33l-.48-.28c-.11-.06-.28-.06-.38,0l-.48.28c-.11.06-.19.21-.19.33v.56ZM66.51,84.1c0,.12.09.27.19.33l.48.28c.11.06.28.06.38,0l.48-.28c.11-.06.19-.21.19-.33v-.55c0-.12-.08-.27-.19-.33l-.48-.28c-.11-.06-.28-.06-.38,0l-.48.28c-.11.06-.19.21-.19.33v.55ZM39.94,89.79c0,.12.09.27.19.33l.48.28c.11.06.28.06.38,0l.48-.28c.11-.06.19-.21.19-.33v-.56c0-.12-.09-.27-.19-.33l-.48-.28c-.1-.06-.28-.06-.38,0l-.48.28c-.1.06-.19.21-.19.33v.56ZM24.41,65.46c0,.11.08.25.17.3l.96.55c.1.05.25.05.35,0l.96-.55c.1-.06.17-.19.17-.3v-1.11c0-.11-.08-.25-.17-.3l-.96-.55c-.1-.06-.25-.06-.35,0l-.96.55c-.1.06-.17.19-.17.3v1.11ZM21.59,68.28c0,.11.08.25.17.3l.96.55c.1.05.25.05.35,0l.96-.55c.1-.06.17-.19.17-.3v-1.11c0-.11-.08-.25-.17-.3l-.96-.55c-.1-.06-.25-.06-.35,0l-.96.55c-.1.05-.17.19-.17.3v1.11ZM27.67,68.27c0,.11.08.25.17.3l.96.55c.1.06.25.06.35,0l.96-.55c.1-.05.17-.19.17-.3v-1.11c0-.11-.08-.25-.17-.3l-.96-.55c-.1-.06-.25-.06-.35,0l-.96.55c-.1.06-.17.19-.17.3v1.11ZM31.32,70.53c0,.11.08.25.17.3l.96.55c.1.05.25.05.35,0l.96-.55c.1-.06.17-.19.17-.3v-1.11c0-.11-.08-.25-.17-.3l-.96-.55c-.1-.06-.25-.06-.35,0l-.96.55c-.1.05-.17.19-.17.3v1.11ZM35.28,72.18c0,.11.08.25.18.3l.96.55c.1.06.25.06.35,0l.96-.55c.1-.06.18-.19.18-.3v-1.11c0-.11-.08-.25-.18-.3l-.96-.55c-.1-.06-.25-.06-.35,0l-.96.55c-.1.06-.18.19-.18.3v1.11ZM39.45,73.19c0,.11.08.25.18.3l.96.55c.1.06.25.06.35,0l.96-.55c.1-.06.18-.19.18-.3v-1.11c0-.11-.08-.25-.18-.3l-.96-.55c-.1-.05-.25-.05-.35,0l-.96.55c-.1.06-.18.19-.18.3v1.11ZM43.72,73.53c0,.11.08.25.18.3l.96.55c.1.06.25.06.35,0l.96-.55c.1-.06.17-.19.17-.3v-1.11c0-.11-.08-.25-.17-.3l-.96-.55c-.1-.05-.25-.05-.35,0l-.96.55c-.1.06-.18.19-.18.3v1.11ZM43.68,77.52c0,.11.08.25.17.3l.96.55c.1.06.25.06.35,0l.96-.55c.1-.06.17-.19.17-.3v-1.11c0-.11-.08-.25-.17-.3l-.96-.55c-.1-.05-.25-.05-.35,0l-.96.55c-.1.06-.17.19-.17.3v1.11ZM38.79,77.11c0,.11.08.25.17.3l.96.56c.1.05.25.05.35,0l.96-.56c.1-.06.18-.19.18-.3v-1.11c0-.11-.08-.25-.18-.3l-.96-.55c-.1-.06-.25-.06-.35,0l-.96.55c-.1.05-.17.19-.17.3v1.11ZM34.03,75.95c0,.11.08.25.18.3l.96.55c.1.06.25.06.35,0l.96-.55c.1-.06.17-.19.17-.3v-1.11c0-.11-.08-.25-.17-.3l-.96-.55c-.1-.06-.25-.06-.35,0l-.96.55c-.1.05-.18.19-.18.3v1.11ZM29.5,74.07c0,.11.08.25.18.3l.96.55c.1.05.25.05.35,0l.96-.55c.1-.06.18-.19.18-.3v-1.11c0-.11-.08-.25-.18-.3l-.96-.55c-.1-.06-.25-.06-.35,0l-.96.55c-.1.06-.18.19-.18.3v1.11ZM27.61,77.69c0,.11.08.25.17.3l.96.55c.1.06.25.06.35,0l.96-.55c.1-.06.17-.19.17-.3v-1.11c0-.11-.08-.25-.17-.3l-.96-.55c-.1-.05-.25-.05-.35,0l-.96.55c-.1.06-.17.19-.17.3v1.11ZM25.32,71.49c0,.11.08.25.17.3l.96.55c.1.06.25.06.35,0l.96-.55c.1-.06.18-.19.18-.3v-1.11c0-.11-.08-.25-.18-.3l-.96-.55c-.1-.06-.25-.06-.35,0l-.96.55c-.1.05-.17.19-.17.3v1.11ZM22.89,74.77c0,.11.08.25.17.3l.96.55c.1.05.25.05.35,0l.96-.55c.1-.06.18-.19.18-.3v-1.11c0-.11-.08-.25-.18-.3l-.96-.55c-.1-.06-.25-.06-.35,0l-.96.55c-.1.06-.17.19-.17.3v1.11ZM48,73.19c0,.11.08.25.18.3l.96.55c.1.06.25.06.35,0l.96-.55c.1-.06.17-.19.17-.3v-1.11c0-.11-.08-.25-.17-.3l-.96-.55c-.1-.05-.25-.05-.35,0l-.96.55c-.1.06-.18.19-.18.3v1.11ZM52.17,72.18c0,.11.08.25.18.3l.96.55c.1.06.25.06.35,0l.96-.55c.1-.06.17-.19.17-.3v-1.11c0-.11-.08-.25-.17-.31l-.96-.55c-.1-.05-.25-.05-.35,0l-.96.55c-.1.06-.18.19-.18.31v1.11ZM21.62,29.83c0,.11.08.25.17.3l.96.55c.1.06.25.06.35,0l.96-.55c.1-.06.18-.19.18-.3v-1.11c0-.11-.08-.25-.18-.3l-.96-.55c-.1-.06-.25-.06-.35,0l-.96.55c-.1.06-.17.19-.17.3v1.11Z"/>
  </g>
  <line class="cls-2" x1="350.14" y1=".25" x2="350.14" y2="90.68"/>
</svg>